<svg xmlns="http://www.w3.org/2000/svg" width="109" height="100" fill="none" viewBox="0 0 109 100"><path fill="url(#paint0_linear_40751_532)" d="M66.0387 39.8157C66.0387 39.8157 57.4046 50.0022 60.6529 63.6045C63.9012 77.2068 76.7126 88.2995 93.0039 81.8496C109.295 75.3997 114.146 44.3821 101.369 26.5497C88.5923 8.7173 68.4159 -6.725 36.5658 3.01852C4.71578 12.762 -20.7278 64.8854 24.4193 100C24.4193 100 10.5382 85.0722 11.9093 65.8769C13.2804 46.6815 25.8489 27.0291 49.2717 22.3445C49.2717 22.3445 29.6193 35.3699 29.0481 57.0789C28.4767 78.7879 40.9309 102.668 76.465 99.4685C76.465 99.4685 58.3364 95.1074 52.6743 76.7959C47.0122 58.4843 60.3687 43.6751 66.0387 39.8157Z"/><defs><linearGradient id="paint0_linear_40751_532" x1="6.414" x2="100.721" y1="79.552" y2="25.104" gradientUnits="userSpaceOnUse"><stop offset=".1" stop-color="#F27121"/><stop offset=".6" stop-color="#E94057"/><stop offset="1" stop-color="#8A2387"/></linearGradient></defs></svg>